<?xml version="1.0" encoding="UTF-8"?>
<!DOCTYPE svg PUBLIC "-//W3C//DTD SVG 1.1//EN" "http://www.w3.org/Graphics/SVG/1.1/DTD/svg11.dtd">
<!-- Creator: CorelDRAW -->
<svg xmlns="http://www.w3.org/2000/svg" xml:space="preserve" width="110mm" height="110mm" version="1.1" style="shape-rendering:geometricPrecision; text-rendering:geometricPrecision; image-rendering:optimizeQuality; fill-rule:evenodd; clip-rule:evenodd"
viewBox="0 0 11000 11000"
 xmlns:xlink="http://www.w3.org/1999/xlink"
 xmlns:xodm="http://www.corel.com/coreldraw/odm/2003">
 <defs>
  <style type="text/css">
   <![CDATA[
    .fil0 {fill:#FEFEFE}
   ]]>
  </style>
 </defs>
 <g id="Camada_x0020_1">
  <metadata id="CorelCorpID_0Corel-Layer"/>
  <g id="_2366752288272">
   <path class="fil0" d="M2433.4 5882.65l745.85 11c59.78,-676.64 7.86,-2798.01 7.78,-3730.32 -0.03,-384.76 -60.25,-875.04 390.41,-875.04l5362.22 0c501.81,0 390.4,634 390.4,1051.43l0.01 5785.55c0.11,596.58 61.65,844.48 -601.44,840.17 -963.71,-6.28 -1929.47,-0.41 -2893.41,-0.41l-773.58 767.64c340.65,-33.05 2561.23,-4.74 3101.91,-4.74 487.59,0 994.73,62.03 1366.27,-164.59 287.07,-175.1 563.87,-519.31 563.87,-1014.74l0 -6843.88c0,-660.7 -525.75,-1179.33 -1154.03,-1179.33l-5344.58 0c-480.83,0 -855.42,292.39 -1026.39,593.24 -209.75,369.1 -145.28,1036.84 -145.28,1503.31 0,527.46 -29.26,2957.74 9.99,3260.71z"/>
   <path class="fil0" d="M5352.2 3602.81c-855.42,99.39 -1320.54,701.38 -1393.61,1521.5l3065.94 -0.51c-35.78,-845.86 -614.7,-1441.51 -1411.85,-1520.99 144.76,-85.75 685.75,-220.45 640.88,-836.12 -66.05,-906.3 -1452.73,-955.95 -1526.17,6.82 -42.62,558.79 434.73,712.86 624.81,829.3z"/>
   <path class="fil0" d="M3191.88 8198.17l-2295.55 0 -3.48 763.71 2331.81 -0.08 -31.93 1516.95 1898.47 -1894.16c-59.52,-95.84 -358.35,-381.26 -464.03,-486.02l-952.54 -952.46c-114.34,-114.29 -376.84,-394.46 -485.24,-467.23l2.49 1519.29z"/>
   <path class="fil0" d="M3958.59 6220.27c0,183.06 132.65,280.78 236.89,371.15 156.28,135.48 1558.51,67.34 1816.13,67.34 840.74,0 1681.48,0 2522.22,0 61.84,-193.23 24.68,-546.11 24.68,-762.89l-4593.01 0 -6.91 324.4z"/>
   <path class="fil0" d="M8558.51 8193.48l-3.43 -763.71 -3495.97 0.08c22.91,40.73 644.16,739.11 811.97,762.98l2687.43 0.65z"/>
   <path class="fil0" d="M8533.83 3589.6c61.84,-193.24 24.68,-546.11 24.68,-762.9 -216.79,0 -569.66,-37.16 -762.9,24.68 0,909.15 -170.93,738.22 738.22,738.22z"/>
   <polygon class="fil0" points="7795.61,5108.89 8558.5,5125.81 8556.69,4360.66 7795.58,4362.95 "/>
  </g>
 </g>
</svg>
