<svg xmlns="http://www.w3.org/2000/svg" fill="#ffffffff" version="1.1" viewBox="-5.0 -10.0 110.0 135.0">
 <path d="m71.789 88.59c4.1289-0.003906 7.4766-3.3516 7.4805-7.4805v-27.188l-28.57-25.172c-0.39844-0.35156-1-0.35156-1.3984 0l-28.57 25.172v27.188c0.003906 4.1289 3.3516 7.4766 7.4805 7.4805h12.789v-16.102c0-4.9688 4.0312-9 9-9s9 4.0312 9 9v16.102z"/>
 <path d="m88.219 44.578-6-5.3711v0.003907c-0.078125-0.0625-0.15234-0.13281-0.21875-0.21094-0.039062-0.050781-0.074219-0.10156-0.10156-0.16016-0.003907-0.0625-0.003907-0.125 0-0.19141-0.007813-0.078126-0.007813-0.16016 0-0.23828v-14c0-0.76172-0.61719-1.3789-1.3789-1.3789h-5.7188c-0.76172 0-1.3789 0.61719-1.3789 1.3789v4.5703c0.003906 0.050781 0.003906 0.10547 0 0.16016 0.003906 0.078125 0.003906 0.16016 0 0.23828-0.035156 0.078125-0.078125 0.15234-0.13281 0.22266-0.019531 0.046876-0.046874 0.09375-0.078124 0.13672-0.0625 0.058594-0.12891 0.10938-0.19922 0.15234-0.046875 0.046875-0.10156 0.082031-0.16016 0.10938-0.0625 0.023438-0.125 0.039062-0.19141 0.050781-0.082031 0.027344-0.16406 0.042969-0.25 0.050781h-0.16016c-0.082031 0.003907-0.16797 0.003907-0.25 0-0.074219-0.035156-0.14453-0.078124-0.21094-0.13281-0.050781-0.019531-0.097656-0.046875-0.14062-0.078125l-20.059-17.891c-0.90234-0.81641-2.2773-0.81641-3.1797 0l-36.641 32.578c-2.207 1.9492-2.4219 5.3164-0.47266 7.5273 1.9453 2.207 5.3125 2.4219 7.5234 0.47266l28.961-25.578c1.2656-1.1211 3.1719-1.1211 4.4375 0l29 25.512c2.2109 1.9297 5.5664 1.707 7.5-0.5 1.9336-2.2109 1.7109-5.5703-0.5-7.5z"/>
</svg>