<?xml version="1.0" encoding="UTF-8"?>
<!DOCTYPE svg PUBLIC "-//W3C//DTD SVG 1.1//EN" "http://www.w3.org/Graphics/SVG/1.1/DTD/svg11.dtd">
<!-- Creator: CorelDRAW -->
<svg xmlns="http://www.w3.org/2000/svg" xml:space="preserve" width="166mm" height="180mm" version="1.1" style="shape-rendering:geometricPrecision; text-rendering:geometricPrecision; image-rendering:optimizeQuality; fill-rule:evenodd; clip-rule:evenodd"
viewBox="0 0 16600 18000"
 xmlns:xlink="http://www.w3.org/1999/xlink"
 xmlns:xodm="http://www.corel.com/coreldraw/odm/2003">
 <defs>
  <style type="text/css">
   <![CDATA[
    .str2 {stroke:#373435;stroke-width:7.62;stroke-miterlimit:22.9256;stroke-opacity:0.309804}
    .str3 {stroke:#373435;stroke-width:52.92;stroke-miterlimit:22.9256}
    .str1 {stroke:#373435;stroke-width:20;stroke-miterlimit:22.9256}
    .str0 {stroke:#373435;stroke-width:7.62;stroke-miterlimit:22.9256}
    .fil6 {fill:none}
    .fil3 {fill:#FEFEFE}
    .fil5 {fill:#373435}
    .fil1 {fill:#373435}
    .fil4 {fill:#373435}
    .fil17 {fill:#3E4095}
    .fil10 {fill:#3A2417}
    .fil9 {fill:#644B35}
    .fil13 {fill:#AE5E43}
    .fil7 {fill:#AE5E43}
    .fil11 {fill:#724530;fill-opacity:0.101961}
    .fil12 {fill:#FEFEFE;fill-opacity:0.309804}
    .fil16 {fill:url(#id0)}
    .fil0 {fill:url(#id1)}
    .fil14 {fill:url(#id2)}
    .fil8 {fill:url(#id3)}
    .fil2 {fill:url(#id4)}
    .fil15 {fill:url(#id5)}
   ]]>
  </style>
  <linearGradient id="id0" gradientUnits="userSpaceOnUse" x1="4363.48" y1="9184.32" x2="6553.38" y2="9333.91">
   <stop offset="0" style="stop-opacity:1; stop-color:#AF7260"/>
   <stop offset="1" style="stop-opacity:1; stop-color:#E2A795"/>
  </linearGradient>
  <linearGradient id="id1" gradientUnits="userSpaceOnUse" x1="5597.68" y1="2151.5" x2="9838.12" y2="15762.34">
   <stop offset="0" style="stop-opacity:1; stop-color:#FFD2AD"/>
   <stop offset="0.290196" style="stop-opacity:1; stop-color:#F7BD97"/>
   <stop offset="0.588235" style="stop-opacity:1; stop-color:#F2C9A2"/>
   <stop offset="1" style="stop-opacity:1; stop-color:#DDB287"/>
  </linearGradient>
  <linearGradient id="id2" gradientUnits="userSpaceOnUse" x1="11852.55" y1="7087.98" x2="12291.22" y2="7624.87">
   <stop offset="0" style="stop-opacity:1; stop-color:#AE5E43"/>
   <stop offset="1" style="stop-opacity:1; stop-color:#DDAF8D"/>
  </linearGradient>
  <linearGradient id="id3" gradientUnits="userSpaceOnUse" x1="4199.82" y1="9008.31" x2="6036.8" y2="12978.22">
   <stop offset="0" style="stop-opacity:1; stop-color:#352B21"/>
   <stop offset="0.458824" style="stop-opacity:1; stop-color:#4C3724"/>
   <stop offset="1" style="stop-opacity:1; stop-color:#2F2A24"/>
  </linearGradient>
  <linearGradient id="id4" gradientUnits="userSpaceOnUse" x1="6604.04" y1="563.39" x2="12600.64" y2="6067.11">
   <stop offset="0" style="stop-opacity:1; stop-color:#2F2F2F"/>
   <stop offset="1" style="stop-opacity:1; stop-color:#382E2D"/>
  </linearGradient>
  <linearGradient id="id5" gradientUnits="userSpaceOnUse" xlink:href="#id0" x1="4363.48" y1="9184.32" x2="6553.38" y2="9333.9">
  </linearGradient>
 </defs>
 <g id="Camada_x0020_1">
  <metadata id="CorelCorpID_0Corel-Layer"/>
  <g id="_2197231766400">
   <path class="fil0" d="M11822.28 6265.56c-4.43,3.64 -7.23,5.67 -8.2,5.73 2.84,-1.87 5.56,-3.79 8.2,-5.73zm20.22 -17.4c-6.1,6.09 -12.77,11.89 -20.22,17.4 4.83,-3.98 11.67,-9.92 20.22,-17.4zm-452.16 4765.96c29.81,-114.94 34.09,-228.19 12.82,-339.75 131.73,-687.82 197.58,-1214.39 197.55,-1579.74 -195.85,31.75 -365.5,-53.32 -382.01,-304.44 76.1,233.74 225.32,298.4 381.78,268.02 172.04,-33.41 352.83,-181.73 454.78,-346.52 385.2,-622.66 579.56,-379.88 766.55,-1414.15 70.15,-388.03 50.29,-915.88 -221.16,-1230.43 -176.06,-204.03 -446.14,-59.83 -619.64,68.2 46.98,22.29 130.59,48.08 250.83,77.37 -136.97,1.36 -235.97,-12.66 -297,-42.04 -39.36,31.19 -71.2,59.07 -92.34,77.52 26.37,-26.36 42.11,-57.94 66.1,-92.7 -31.2,-21.86 -46.97,-49.96 -47.28,-84.32 -125.16,43.2 -286.14,280.51 -482.94,711.9 -198.75,25.99 -403.05,-7.87 -612.88,-101.56 16.06,-129.24 21.46,-256.01 16.19,-380.29 75.61,-161.22 75.61,-336.53 0,-525.92 -104.67,-13.91 -131.64,-108.31 -80.91,-283.18 -92.56,-98.01 -130.33,-259.83 -113.28,-485.47 -81.96,-94.52 -122.41,-215.89 -121.37,-364.1 31.05,-249.41 -22.89,-324.93 -161.82,-226.55 118.89,-242.18 180.92,-449.85 186.09,-623.01 -148.66,90.88 -210.69,268.88 -186.09,534 -83.51,-143.53 -87.11,-313.14 -10.81,-508.86 154.47,-338.79 235.11,-665.39 241.93,-979.79 -79.76,-94.56 -140.39,50.37 -181.88,434.8 -61.99,-292.18 -24,-486.34 113.97,-582.5 -68.34,-44.77 -57.79,-116.53 31.66,-215.28 -27.82,23.82 -57.38,15.38 -88.64,-25.33 -56.91,-118.72 -42.14,-228.47 44.31,-329.23 -58.87,25.52 -143.29,0.19 -253.26,-75.98 -121.13,-14.11 -209.77,-98.53 -265.92,-253.26 -102.34,-211.27 -266.97,-310.46 -493.86,-297.59 -1.49,82.22 -43.7,175.09 -126.63,278.59 23.09,-92.7 25.21,-179.23 6.34,-259.59 -31.31,36.57 -75.63,74.56 -132.97,113.97 115.09,-311.81 -11.54,-434.23 -379.88,-367.23 -90.7,162.8 -23.16,283.1 202.61,360.89 -129.29,20.79 -239.03,-44.63 -329.24,-196.27 -219.04,93.21 -399.05,52.11 -540.04,-123.3 -287.52,-170.45 -457.57,-162.85 -587.94,-21.94 -174.9,-84.63 -276.2,-88.85 -303.91,-12.67 21.2,105.28 145.72,151.71 373.56,139.29 -267.55,117.21 -421.61,81.33 -462.2,-107.64 -197.58,47.16 -370.65,57.71 -519.18,31.67 110.02,-70.51 196.55,-140.16 259.59,-208.95 -71.38,16.63 -199.55,18.56 -384.5,5.8 -70.94,69.9 -48.28,124.61 68,164.13 -120.64,64.04 -250.86,88.2 -390.69,72.47 -33.52,149.62 -190.54,248.05 -471.1,295.29 217.01,-81.61 343.27,-172.48 378.77,-272.58 -56.59,11.73 -138.93,27.57 -247.03,47.52 -111.96,125.7 -313.21,208.04 -603.79,247.02 -128.06,43.73 -247.74,130.8 -359.12,261.3 -22.38,34.45 -2.1,33.89 -25.24,67.97 -539.71,794.83 -809.98,1690.98 -936.72,2602.24 173.49,-72.97 393.25,-80.8 659.28,-23.51 202.53,-56.34 364.49,32.17 485.91,265.52 20.68,-78.49 3.88,-156 -50.39,-232.52 93.62,40.52 136.24,127.06 127.89,259.65 -3.38,128.39 -79.61,198.14 -228.65,209.27 -394.43,-23.62 -688.96,-59.8 -883.57,-108.51 -258.07,194.34 -323.94,433.32 -197.64,716.95 -20.62,-8.77 -39.95,-19.07 -57.98,-30.88 67.64,63.97 28.78,385.74 -4.04,552.01 -104.99,531.69 -440.53,949.41 -496.3,1608.56 -26.54,313.61 187.73,805.85 257.46,1096.26 -17.41,70.36 -5.11,118.97 36.91,145.83 -3.71,44.82 -22.11,92.29 -55.17,142.41 12.55,56.11 39.33,105.56 80.36,148.37 -30.63,54.23 -126.07,36.26 -96.58,118.6 30.83,62.84 14.97,98.69 -47.57,107.6 42.65,315.86 137.31,542.01 284,678.44 -150.7,504.68 -154.21,995.55 -10.52,1472.6 35.72,433.01 186.2,798.97 451.43,1097.88 182.48,122.35 277.69,238.71 285.62,349.09 25.87,-114.41 99.55,-213.41 221.04,-297 22.43,60.46 17.8,141.6 -13.9,243.45 204.92,-109.7 318.52,-197.8 340.81,-264.31 19.85,144.36 83.59,228.14 191.24,251.31 42.09,104.35 118.55,207.68 191.53,328.9 -77.76,232.82 61.64,684.91 -131.31,636.86 -821,-204.55 -3447.86,-107.77 -5202.26,2485.86 1807.56,0 7174.66,0 8770.75,0 1596.09,0 5401.74,12.75 7566.62,0 -759.47,-955.08 -3984.65,-3146.09 -4626.66,-3710.27m0 0c-391.8,-547.49 -521.29,-1162.9 -388.47,-1846.22m-2070.57 -5687.55c-672.91,-289.95 -1293.85,-501.91 -1739.81,-477.06 -281.8,-44.58 -774.23,6.62 -1477.29,153.62 -151.2,-122.94 -194.52,-266.47 -129.94,-430.59 9.91,107.52 44.73,196.7 104.47,267.53 -23.51,-197.73 23.2,-320.88 140.13,-369.45 -46.5,106.77 -55.84,170.47 -28.02,191.09 439.04,-213.98 933.79,-320.72 1484.24,-320.23 562.09,107.22 1300.46,529.54 1646.22,985.09zm-4334.2 441.63c-164.64,54.77 -268.12,36.56 -686.82,10.52 72.48,1.67 136.08,3.66 192.84,5.44 -0.37,-0.69 -0.73,-1.37 -1.16,-1.9 -41.77,-50.79 -66.59,-114.3 -66.59,-183.21 0,-28.14 -0.94,-37.32 2.29,-46.94 -89.75,46.88 -175.3,115.63 -252.19,205.54 4.82,-7.85 35.48,-62.32 40.54,-69.77 274.86,-405.07 865.13,-221.84 916.52,-47.47 -19.05,-16.6 -38.5,-31.91 -58.3,-45.95 0.02,1.53 0.03,3.07 0.03,4.59 0,53.14 -14.76,103.08 -40.67,146.43 25.06,-7.56 51.24,-16.34 79.2,-26.51 -30.71,13.24 -58.35,24.63 -84.05,34.36 -1.38,2.17 -2.81,4.31 -4.25,6.44 -0.59,0.86 -0.75,2.44 -1.77,2.58 -7.72,1.13 -19.93,3.27 -35.62,5.85zm-814.83 -323.63c-7.7,3.46 -75.22,-7.86 -84.53,-4.58 284.06,-116.9 694.89,-143.85 911.43,18.69 -9.56,-2.5 -154.27,-54.45 -163.73,-56.73 -246.92,-59.33 -467.99,-45.14 -663.17,42.62z"/>
   <path class="fil1 str0" d="M5401.67 13447.89c-72.98,-121.22 -149.44,-224.55 -191.53,-328.9 19.04,163.7 76.57,276.48 172.61,338.36 -164.42,278.37 -197.1,817.61 -98.04,1617.74 -27.21,329.55 -89.08,652.67 -185.59,969.35 130.27,-282.55 159.23,-643.14 242.37,-969.49 -83.21,-592.96 -143.63,-1016.91 60.18,-1627.06z"/>
   <path class="fil2" d="M12932.45 6569.5c61.17,-93.6 64.42,-202.15 35.82,-369.16 66.52,-104.7 97.06,-253.32 91.62,-445.88 26.99,-148.43 23.71,-256.61 -9.82,-324.56 41.79,37.18 72.98,89.18 93.61,156.01 27.69,-316.57 15.55,-595.64 -36.4,-837.22 -2.38,-108.3 -17.25,-148.7 -65.05,-208.94 164.64,-311.54 195.31,-608.14 92.05,-889.8 0,61.37 0,117.61 0,168.75 -74.18,-120.27 -104.87,-352.08 -92.05,-695.47 47.56,-95.92 -34.26,-208.43 -245.46,-337.51 -84.46,-202.69 -264.32,-447.21 -539.6,-733.57 -142.3,-72.8 -210.72,-218.51 -205.25,-437.12 -62.22,10.11 -93.9,43.05 -95.02,98.83 -160.21,-132.82 -378.14,-227.85 -653.79,-285.09 -268.26,-355.41 -687.65,-625.29 -1258.14,-809.62 13.49,61.58 47.7,114.79 102.62,159.63 -341.96,-134.03 -590.14,-251.55 -744.51,-352.57 -61.1,-44.51 -94.81,-82.4 -101.16,-113.71 0.96,77.63 23.88,129.2 68.77,154.72 -113.81,-72.64 -180.12,-164.32 -198.93,-275.06 -13.97,128.29 -0.87,201.97 39.3,221.03 -386.45,-49.16 -627.96,-114.48 -724.51,-195.96 -135.63,25.22 -254.71,-20.25 -357.26,-136.4 -85.24,10.01 -110.14,47.89 -74.7,113.67 -132.69,-91.13 -307.88,-130.37 -525.56,-117.73 123.1,32.38 163.23,46.21 120.37,41.5 -124.02,23.7 -213.94,51.37 -269.78,83.01 -250.07,15.67 -366.28,-50.73 -348.64,-199.22 -126.44,24.12 -166.56,57.32 -120.36,99.61 -112.32,25.86 -196.72,70.13 -253.18,132.82 -170.39,-86.56 -287.99,-65.81 -352.8,62.25 -58.04,-54.42 -6.85,-122.21 153.57,-203.37 -282.52,-2.13 -494.18,114.08 -635.02,348.64 -301.03,0.2 -538.99,267.22 -713.88,801.04 -112.59,152.36 -200.57,292.65 -263.92,420.88 -115.15,172.19 -124.31,296.61 -27.44,373.26 131.93,-184.19 276.48,-303.11 433.63,-356.78 290.58,-38.98 491.83,-121.32 603.79,-247.02 342.15,-63.16 426.31,-85.11 252.49,-65.86 -25.95,107.37 -154.03,204.35 -384.23,290.92 280.56,-47.24 437.58,-145.67 471.1,-295.29 139.83,15.73 270.05,-8.43 390.69,-72.47 -116.28,-39.52 -138.94,-94.23 -68,-164.13 184.95,12.76 313.12,10.83 384.5,-5.8 -63.04,68.79 -149.57,138.44 -259.59,208.95 148.53,26.04 321.6,15.49 519.18,-31.67 40.59,188.97 194.65,224.85 462.2,107.64 -227.84,12.42 -352.36,-34.01 -373.56,-139.29 27.71,-76.18 129.01,-71.96 303.91,12.67 130.37,-140.91 300.42,-148.51 587.94,21.94 140.99,175.41 321,216.51 540.04,123.3 90.21,151.64 199.95,217.06 329.24,196.27 -225.77,-77.79 -293.31,-198.09 -202.61,-360.89 368.34,-67 494.97,55.42 379.88,367.23 57.34,-39.41 101.66,-77.4 132.97,-113.97 18.87,80.36 16.75,166.89 -6.34,259.59 82.93,-103.5 125.14,-196.37 126.63,-278.59 226.89,-12.87 391.52,86.32 493.86,297.59 56.15,154.73 144.79,239.15 265.92,253.26 109.97,76.17 194.39,101.5 253.26,75.98 -86.45,100.76 -101.22,210.51 -44.31,329.23 31.26,40.71 60.82,49.15 88.64,25.33 -89.45,98.75 -100,170.51 -31.66,215.28 -137.97,96.16 -175.96,290.32 -113.97,582.5 41.49,-384.43 102.12,-529.36 181.88,-434.8 -6.82,314.4 -87.46,641 -241.93,979.79 -76.3,195.72 -72.7,365.33 10.81,508.86 -24.6,-265.12 37.43,-443.12 186.09,-534 -5.17,173.16 -67.2,380.83 -186.09,623.01 138.93,-98.38 192.87,-22.86 161.82,226.55 -1.04,148.21 39.41,269.58 121.37,364.1 -17.05,225.64 20.72,387.46 113.28,485.47 -50.73,174.87 -23.76,269.27 80.91,283.18 75.61,189.39 75.61,364.7 0,525.92 5.27,124.28 -0.13,251.05 -16.19,380.29 209.83,93.69 414.13,127.55 612.88,101.56 196.8,-431.39 357.78,-668.7 482.94,-711.9 0.88,96.79 124.39,143.97 370.52,141.54 -250.29,-60.98 -341.88,-106.78 -274.77,-137.39 156.13,-108.38 328.2,-144.46 516.24,-108.24 213.46,47.29 338.36,261 374.68,641.14 54.21,-2.28 82.36,-15.17 84.46,-38.69z"/>
   <path class="fil3" d="M4762.14 5466.3c290.7,-11.59 370.53,207.79 360.7,223.01 -9.82,15.22 -134.71,103.52 -328.1,105.6 -193.38,2.09 -595.2,2.49 -550.91,-111 44.29,-113.49 227.62,-206.02 518.31,-217.61z"/>
   <path class="fil3" d="M7562.44 5436.07c367.52,0 580.48,201.23 650.63,220.57 70.15,19.35 -285.35,128.24 -652.88,128.24 -367.52,0 -702.59,-110.69 -665.55,-145.92 37.03,-35.23 300.27,-202.89 667.8,-202.89z"/>
   <path class="fil1 str0" d="M7579.96 4849.51c445.96,-24.85 1066.9,187.11 1739.81,477.06 -345.76,-455.55 -1084.13,-877.87 -1646.22,-985.09 -550.45,-0.49 -1045.2,106.25 -1484.24,320.23 -27.82,-20.62 -18.48,-84.32 28.02,-191.09 -116.93,48.57 -163.64,171.72 -140.13,369.45 -59.74,-70.83 -94.56,-160.01 -104.47,-267.53 -64.58,164.12 -21.26,307.65 129.94,430.59 703.06,-147 1195.49,-198.2 1477.29,-153.62z"/>
   <path class="fil1 str0" d="M3631.37 4865.17c-84.19,459.83 -13.54,737.69 211.96,833.6 -126.3,-283.63 -60.43,-522.61 197.64,-716.95 194.61,48.71 489.14,84.89 883.57,108.51 149.04,-11.13 225.27,-80.88 228.65,-209.27 8.35,-132.59 -34.27,-219.13 -127.89,-259.65 54.27,76.52 71.07,154.03 50.39,232.52 -121.42,-233.35 -283.38,-321.86 -485.91,-265.52 -454.55,-97.9 -774.03,-5.64 -958.41,276.76z"/>
   <path class="fil4 str0" d="M4338.36 7439.66c31.09,144.44 143.09,315.25 335.99,512.46 -101.3,-52.63 -214.9,-181.59 -340.81,-386.87 -110.89,-184.14 -20.84,-428.32 270.17,-732.56 272.44,-555.01 540.31,-986.01 690.83,-1519.85 3.28,227.83 -320.86,929.25 -664.75,1547.03 -147.85,157.85 -261.31,321.17 -291.43,579.79z"/>
   <path class="fil1 str0" d="M4309.84 7517.56c14.62,213.68 101.21,332.71 259.77,357.1 -193.94,8.96 -280.53,-110.08 -259.77,-357.1z"/>
   <path class="fil1 str0" d="M5148.58 7906.52c282.34,-216.27 550.16,-249.75 803.47,-100.43 -63.48,120.67 -263.11,112.18 -598.91,-25.45 346.26,165.68 552.51,168.28 618.76,7.81 -217.24,-137.39 -650.75,-116.88 -823.32,118.07z"/>
   <path class="fil1 str1" d="M5952.05 7806.09c-191.36,-112.79 -390.99,-121.28 -598.91,-25.45 335.8,137.63 535.43,146.12 598.91,25.45z"/>
   <path class="fil1 str0" d="M4892.52 1941.61c-22.53,34.55 -2.11,33.92 -25.3,68.07 -539.71,794.83 -809.98,1690.98 -936.72,2602.24 -3.18,22.88 -26.84,19.04 -26.84,19.04 34.17,-828.04 425.41,-2054.28 988.86,-2689.35z"/>
   <g>
    <path class="fil5" d="M6099.45 8007.49c350.77,11.92 329.46,-232.4 242.34,-463.68 -17.92,-47.55 -27.32,-70.36 -14.16,-118.73 15.97,42.45 23.59,63.16 46.28,103.77 150.74,269.79 123.93,566.55 -271.25,575.26 -26.68,0.89 -49.02,-20.03 -49.91,-46.71 -0.89,-26.68 20.02,-49.02 46.7,-49.91z"/>
   </g>
   <path class="fil6" d="M6101.06 8055.8c126.02,-4.2 110.13,28.01 260.15,-106.55 208.87,-187.35 -44.01,-392.17 -33.58,-524.17"/>
   <path class="fil5" d="M11697.7 7117.57c67.69,-338.26 450.99,-985.31 824.67,-893.2 390.07,96.15 234.4,1053.99 168.04,1267.5l-207.06 455.67 153.69 -469.38c40.61,-179.02 150.29,-1031.63 -112.33,-1159.58 -327.23,-159.45 -746.04,594.03 -827.01,798.99z"/>
   <path class="fil5" d="M11588.25 7117.26c67.95,225.96 221.83,820.3 -164.64,878.04 246.99,-221.47 170.91,-573.31 164.64,-878.04z"/>
   <path class="fil5" d="M11218.7 8790.19c159.78,490.76 641.88,236.17 836.56,-78.5 385.2,-622.66 579.56,-379.88 766.55,-1414.15 70.15,-388.03 50.29,-915.88 -221.16,-1230.43 -237.67,-275.43 -646.7,83.76 -758.15,181.05 66.93,-66.91 65.38,-167.36 304.11,-268.5 742.24,-314.46 842.73,855.23 765.15,1333.13 -164.1,1010.92 -409.08,838.18 -800.66,1432.58 -261.03,396.25 -860.63,528.35 -892.4,44.82zm623.8 -2542.03c-8.55,7.48 -15.39,13.42 -20.22,17.4 7.45,-5.51 14.12,-11.31 20.22,-17.4zm-20.22 17.4c-4.43,3.64 -7.23,5.67 -8.2,5.73 2.84,-1.87 5.56,-3.79 8.2,-5.73z"/>
   <path class="fil7" d="M11858.39 6811.1c106.18,58.36 225.89,55.04 359.12,-9.96 -76.43,-100.56 -117.67,-202.73 -123.74,-306.51 -87.57,93.65 -168.76,208.4 -235.38,316.47z"/>
   <path class="fil1 str0" d="M10517.62 10801.75c392.55,-546.8 626.25,-1217.32 701.08,-2011.56 -119.15,564.8 -352.84,1235.31 -701.08,2011.56z"/>
   <path class="fil1 str0" d="M6778.89 7651.69c498.2,664.23 944.39,1209.05 1338.59,1634.49 -327.24,-481.41 -773.43,-1026.24 -1338.59,-1634.49z"/>
   <path class="fil1 str0" d="M5316.01 9245.19c-320.31,-2.13 -752.23,-6.16 -976.1,-85.01 135.97,-33.47 419.67,6.5 581.92,7.72 157.79,43.88 286.76,54.55 386.9,32.02 284.18,16.7 524.62,35 721.31,54.89 202.56,22.84 493.35,41.83 872.39,56.97 -321.24,35.71 -616.77,28.7 -886.62,-21.04 -292.76,-15.28 -526.02,-30.47 -699.8,-45.55z"/>
   <path class="fil1 str0" d="M3785.35 5667.89c67.64,63.97 28.79,385.74 -4.04,552.01 -104.99,531.7 -440.51,949.41 -496.3,1608.56 -26.54,313.63 137.9,744.25 207.63,1034.65 -418.09,-958.75 -238.88,-1299.22 82.24,-2143.03 170.71,-448.59 245.98,-773.18 210.47,-1052.19z"/>
   <path class="fil8" d="M4133.37 9436.62c-71.65,-112.41 -47.2,-176.95 73.32,-193.62 -28.18,-81.05 -60.2,-203.88 -6.88,-234.69 -11.87,23.33 -15.01,47.21 -9.42,71.64 49.59,-67.52 136.95,-147.96 262.06,-241.33 -19.32,26.27 -28.12,49.52 -26.39,69.77 54.96,-44.04 300.18,6.39 373.43,-21.22 -5.52,9.43 -14.61,20 -27.25,31.71 54.2,-7.33 108.56,-33.87 163.06,-79.64 119.71,17.61 187.33,50.89 202.85,99.85 139.18,55.88 257.49,48.49 354.93,-22.18 79.85,-6.74 162.68,13.97 248.46,62.11 13.84,-27.99 11.5,-51.78 -7.03,-71.36 161.09,62.25 259.15,122.48 294.19,180.65 23.75,-37.2 27.19,-71.6 10.32,-103.23 203.87,76.8 344.08,148.2 420.65,214.2 5.66,-29.48 3.08,-63.89 -7.74,-103.23 203,72.36 353.16,144.27 450.5,215.73 107.7,232.42 147.5,598.63 119.41,1098.61 -12.58,203.41 -52.88,397.85 -120.88,583.31 -69.83,1.4 -158.27,-10.13 -265.33,-34.6 -38.86,98.59 -96.54,138.98 -173.03,121.13 82.67,71.14 69.21,161.5 -178.81,-51.92 -22.8,125.85 -109.74,120.9 -183.07,148.86 -174.57,-18.56 -282.12,-81.15 -322.63,-187.75 -45.13,77.96 -129.24,122.89 -252.35,134.78 -62.16,-36.69 -87.98,-100.74 -77.43,-192.14 -282.51,146.15 -518.62,177.69 -708.33,94.64 -99.84,106.81 -179.03,135.13 -237.6,84.93 -153.65,-80.29 -225.48,-189.92 -215.47,-328.86 -106.96,-65.17 -144.76,-161.56 -113.4,-289.18 -43.79,-325.44 -45.69,-578.7 -5.67,-759.79 0,-189 -102.51,-300.97 -34.47,-297.18zm625.88 -1272.48c-114,1.85 -279.54,48.75 -496.63,140.71 -189.35,55.82 -202.84,172.85 -327.38,233.7 -99.32,117.36 -230.36,213.49 -295.91,233.3 15.7,42.04 35.97,57.55 60.84,46.52 -53.36,33.34 -97.07,52.81 -131.15,58.41 6.68,25.01 12.9,49.25 18.5,72.58 -10.51,-24.1 -20.65,-47.81 -30.41,-71.15 -35.88,95.8 -28.45,159.92 22.27,192.34 -3.71,44.82 -22.11,92.29 -55.17,142.41 12.55,56.11 39.33,105.56 80.36,148.37 -30.63,54.23 -126.07,36.26 -96.58,118.6 30.83,62.84 14.97,98.69 -47.57,107.6 42.65,315.86 137.31,542.01 284,678.44 -150.7,504.68 -154.21,995.55 -10.52,1472.6 35.72,433.01 186.2,798.97 451.43,1097.88 182.48,122.35 277.69,238.71 285.62,349.09 25.87,-114.41 99.55,-213.41 221.04,-297 22.43,60.46 17.8,141.6 -13.9,243.45 204.92,-109.7 318.52,-197.8 340.81,-264.31 22.49,163.55 101.31,249.33 236.49,257.34 12.78,-60.74 59.61,-103.12 140.5,-127.15 267.34,175.51 480.98,168.96 640.91,-19.65 239.43,4.7 385.76,39.01 439,102.92 205.01,-219.61 514.14,-375.81 927.4,-468.59 184.12,-323.78 392.02,-586.93 623.67,-789.45 46.26,-307.52 -19.27,-580.11 -196.58,-817.77 24.62,-147.51 22,-265.46 -7.86,-353.84 46.78,27.51 71.51,78.05 74.19,151.58 29.95,-167.11 -7.18,-301.01 -111.37,-401.68 50.62,-94.95 44,-167.86 -19.88,-218.75 -4.67,46.11 -17.71,85.81 -39.1,119.07 -137.19,-276.71 -166,-556.41 -86.41,-839.09 6.29,-242.46 -105.43,-435.36 -335.17,-578.66 -174.96,-148.73 -450.42,-407.24 -893.64,-461.59 -179.49,-163.73 -525.33,-139.48 -970.26,-241.19 -215.28,35.73 -442.47,30.06 -681.54,-17.04z"/>
   <path class="fil9" d="M5598.19 9836.7c-165.27,-69.63 -330.43,-81.47 -495.47,-35.55 -317,-179.28 -520.45,-105.82 -610.34,220.4 -123.75,209.99 -137.87,461.47 -42.38,754.44 -6.68,-118.56 19.33,-216.13 78.04,-292.73 -49.12,297.29 -57.66,506.75 -25.66,628.37 38.04,-101.96 61.46,-133.06 70.24,-93.29 -44.28,114.1 -51.72,225.57 -22.29,334.42 143.6,-252.59 253.21,-395.64 328.84,-429.18 111.59,-179.78 210.06,-261.54 295.42,-245.24 -150.62,132.72 -202.64,303.64 -156.06,512.78 73.13,-207.24 147.45,-355.87 222.94,-445.9 -52.1,144.44 -46.52,257.77 16.72,340 85.14,-337.79 211.48,-588.61 379.02,-752.46 222.26,-287.58 209.25,-452.93 -39.02,-496.06z"/>
   <path class="fil5" d="M7915.39 11927.07c677.21,-305.82 1970.73,-776.04 2331.38,-1437.71 -201.77,724.27 -1673.93,1263.56 -2331.38,1437.71z"/>
   <path class="fil1 str0" d="M11988.65 8890.97c-142.13,98.39 -271.53,154.14 -388.17,167.24 4.63,366.42 -61.14,905.14 -197.32,1616.16 21.27,111.56 16.99,224.81 -12.82,339.75 179.17,-234.08 253.95,-460.58 224.36,-679.49 52.02,85.09 52.52,143.74 1.5,175.95 88.36,-88.14 111.36,-202.35 69.01,-342.61 66.2,-61.67 59.79,-162.1 -19.23,-301.28 83.94,-113.47 126.29,-223.56 127.08,-330.27 71.51,-148.27 160.69,-278.34 267.56,-390.19 114.88,-110.52 155.75,-197.85 122.63,-261.98 113.62,-179.2 161.98,-318.66 145.1,-418.38 -81.11,91.05 -194.34,232.74 -339.7,425.1z"/>
   <path class="fil10 str0" d="M8056.61 5573.73c0.25,4.88 0.39,9.83 0.39,14.79 0,59.08 -18.25,114.2 -49.77,160.72 -0.59,0.86 -0.76,2.44 -1.77,2.58 -32.22,4.74 -142.57,26.76 -257.08,26.76 -102.5,0 -232.19,-1.88 -269.18,-1.49 -2.32,0.03 -3.04,-3.56 -4.51,-5.36 -41.76,-50.78 -66.59,-114.3 -66.59,-183.21 0,-51.03 13.4,-99.26 37.65,-141.26 21.31,-36.9 157.71,-2.87 284.5,15.71 139.46,20.43 325.31,90.33 326.36,110.76z"/>
   <ellipse class="fil1 str0" cx="7843.97" cy="5589.98" rx="79" ry="74.42"/>
   <path class="fil1 str0" d="M6933.3 5725c561.35,86.46 974.78,81.76 1240.3,-14.1 -260.09,77.14 -673.53,81.84 -1240.3,14.1z"/>
   <path class="fil1 str0" d="M6804.06 5695.14c11.99,-7.98 -22.44,39.13 -10.68,31.16 424.9,-287.96 841.17,-349.52 1434.12,-47.87 55.83,28.4 223.45,245.4 390.79,333.02 -121.57,-102.86 -313.59,-314.7 -361.78,-345.73 -567.69,-365.51 -1094.14,-280.45 -1452.45,29.42z"/>
   <path class="fil10 str0" d="M5072.35 5584.26c0.25,4.88 0.38,9.83 0.38,14.79 0,59.07 -18.24,114.2 -49.77,160.72 -0.59,0.86 -0.75,2.44 -1.77,2.58 -32.21,4.74 -142.57,26.75 -257.07,26.75 -102.5,0 -232.2,-1.87 -269.19,-1.48 -2.32,0.02 -3.03,-3.56 -4.5,-5.36 -41.77,-50.79 -66.59,-114.3 -66.59,-183.21 0,-51.03 -3.08,-39.72 21.17,-81.73 21.31,-36.89 174.18,-62.4 300.98,-43.82 139.45,20.42 325.3,90.33 326.36,110.76z"/>
   <ellipse class="fil1 str0" cx="4859.71" cy="5600.51" rx="79" ry="74.42"/>
   <path class="fil1 str0" d="M4173.94 5757.65c276.05,-322.78 663.58,-372.91 957.06,-117.24 -51.39,-174.37 -641.66,-357.6 -916.52,47.47 -5.06,7.45 -35.72,61.92 -40.54,69.77z"/>
   <path class="fil1 str0" d="M4298.75 5778.72c513.56,31.93 552.9,52.1 812.51,-59.75 -255.33,92.87 -362.97,70.12 -812.51,59.75z"/>
   <path class="fil1 str0" d="M4085.86 5440.13c7.73,-3.75 77.08,7.95 84.88,4.44 195.18,-87.76 416.25,-101.95 663.17,-42.62 9.46,2.28 154.17,54.23 163.73,56.73 -216.62,-162.61 -627.72,-135.57 -911.78,-18.55z"/>
   <path class="fil1 str0" d="M6771.34 5424.9c7.74,-3.76 77.96,9.45 84.89,4.43 135.55,-98.44 921.62,-439.48 1576.99,236.47 6.77,6.97 61.21,46.14 70.77,48.64 -732.34,-853.09 -1646.88,-398.31 -1732.65,-289.54z"/>
   <path class="fil1 str0" d="M11390.34 11014.12c-21.75,719.22 107.74,1334.62 388.47,1846.22 -391.8,-547.49 -521.29,-1162.9 -388.47,-1846.22z"/>
   <path class="fil1 str0" d="M11778.81 12860.34c878.95,674.24 1665.72,1169.08 2177.02,1549.9 223.76,166.68 2133.5,1635.54 2449.64,2160.37 -528.75,-521.39 -2316.65,-1983.82 -2514.73,-2119.09 -673.38,-459.87 -1411.8,-975.93 -2111.93,-1591.18z"/>
   <path class="fil11" d="M8162.48 6463.42c-61.39,-86.62 -173.14,-144.12 -335.26,-172.51 137.67,-37.84 330.8,-22.66 579.39,45.57 -150.51,-102.79 -319.77,-148.35 -507.78,-136.71 -512.55,14.98 -890.13,-78.32 -1132.73,-279.93 -134.05,-16.27 -147.07,41.24 -39.06,172.52 175.54,81.35 355.63,149.82 540.24,205.37 287.4,86.49 559.94,-6.82 895.2,165.69z"/>
   <path class="fil12 str2" d="M4786.44 5510.81c20.49,0 37.09,15.24 37.09,34.03 0,18.8 -16.6,34.04 -37.09,34.04 -20.49,0 -37.1,-15.24 -37.1,-34.04 0,-18.79 16.61,-34.03 37.1,-34.03z"/>
   <path class="fil12 str2" d="M7765.49 5511.41c16.64,0 30.13,13.04 30.13,29.1 0,16.07 -13.49,29.1 -30.13,29.1 -16.64,0 -30.12,-13.03 -30.12,-29.1 0,-16.06 13.48,-29.1 30.12,-29.1z"/>
   <path class="fil13" d="M12524.71 6318.58c-138.1,-67.29 -292.49,28 -430.94,176.05 1.16,19.91 3.63,39.78 7.38,59.58 107.48,-112.65 203.95,-133.46 289.45,-62.44 44.78,107.23 109.34,167.6 193.68,181.1 58.81,30.92 95.47,87.89 110,170.9 -3.83,-238.75 -44.44,-464.23 -169.57,-525.19z"/>
   <path class="fil14" d="M12125.59 7784.55c514.15,-188.86 492.14,-436.2 -66,-742.04 -79.51,-13.29 -167.84,-54.12 -264.99,-122.47 -45.43,81.86 -79.22,152.77 -96.9,197.53 -15.68,163.19 104.94,263.79 361.9,301.8 145.94,36.52 167.95,158.24 65.99,365.18z"/>
   <path class="fil1 str0" d="M11883.28 7839.14c93.97,27.94 179.47,11.54 256.51,-49.19 456,-136.98 523.86,-345.61 166.23,-590.2 293.29,235.15 211.23,438.37 -180.43,584.8 -57.12,54.03 -115.98,63.93 -242.31,54.59z"/>
   <path class="fil15" d="M6840.91 9309.26c-932.9,-211.57 -1488.38,-289.2 -1666.42,-232.87 -214.76,-44.71 -532.22,-54.16 -834.58,83.79 135.97,-33.47 419.67,6.5 581.92,7.72 157.79,43.88 286.76,54.55 386.9,32.02 284.18,16.7 524.62,35 721.31,54.89 191.46,21.6 461.75,39.74 810.87,54.45z"/>
   <path class="fil16" d="M6015.81 9290.74c-292.76,-15.28 -526.02,-30.47 -699.8,-45.55 -320.31,-2.13 -752.23,-6.16 -976.1,-85.01 88.93,328.44 524.69,536.66 1038.08,512.5 685.23,-106.17 1165.26,-223.65 1440.06,-352.45 -288.77,25.7 -556.19,15.86 -802.24,-29.49z"/>
   <path class="fil1 str0" d="M649.07 15868.15c1176.73,-1265.67 3300.5,-1926.55 4586.08,-1801.3 -1262.64,-274.02 -3400.35,191.6 -4586.08,1801.3z"/>
   <path class="fil1 str0" d="M14404.59 15647.77c-1102.54,-367.4 -3007.58,-153 -5715.1,643.18 1762.88,-442.14 4160.71,-978.2 5715.1,-643.18z"/>
   <path class="fil1 str0" d="M5732.18 16029c579.69,-574.01 1086.47,-1051.38 1413.7,-1752.02 -355.12,735.46 -826.36,1319.46 -1413.7,1752.02z"/>
   <g>
    <image x="3212.66" y="1336.07" width="3185.71" height="5925.93" xlink:href="Wanderson_Images\Wanderson_ImgID1.png"/>
   </g>
   <g>
    <image x="2975.75" y="7096.37" width="2472.49" height="6197.45" xlink:href="Wanderson_Images\Wanderson_ImgID2.png"/>
   </g>
   <path class="fil1 str0" d="M5682.64 4482.08c-146.04,289.28 -149.81,515.21 -11.3,677.8 -172.26,-141.14 -168.5,-367.07 11.3,-677.8z"/>
   <path class="fil1 str0" d="M5353.57 5185.44c71.15,-69.8 112.97,-193.96 125.45,-372.44 -22.35,125.84 -64.18,249.99 -125.45,372.44z"/>
   <path class="fil17 str3" d="M16405.47 16570.61c-337.99,0 399.82,872.69 72.96,910.92 -6622.66,774.44 -17238.14,845.85 -16410.33,-910.92 954.54,-1737.42 2676.89,-2572 5167.05,-2503.76 -17.47,345.38 -450.06,1678.86 200.33,1994.02 3427.97,-385.26 5750.6,-1279.5 6967.9,-2682.71 1734.15,1092.28 3068.18,2156.42 4002.09,3192.45z"/>
   <path class="fil6 str0" d="M5675.28 16304.59c3687.53,-399.07 5990.5,-1327.84 6908.92,-2786.29"/>
   <path class="fil6 str0" d="M5277.64 15944.64c85.06,141.78 217.61,261.77 397.64,359.95"/>
  </g>
 </g>
</svg>
